<svg xmlns="http://www.w3.org/2000/svg" viewBox="0 0 223.8 109.32"><title>Asset 1</title><g id="Layer_2" data-name="Layer 2"><g id="Layer_1-2" data-name="Layer 1"><path d="M53,92.64H92.4V11.52l10.08.6c-.12.84-.84,1.44-2.4,1.68v95H92.4V100.2h-85v9.12H0V11.4l9.72.6c-.12.84-.72,1.44-2.28,1.56v61.2l4.92-.24C15.6,69,19.32,62,22.8,54.84A83.68,83.68,0,0,0,7.92,37.92l3.24-5.28c1,.72,1.8,1.56,2.76,2.4A198.35,198.35,0,0,0,23.4,7l8.16,2.16c-.24.72-1.08,1.2-2.4,1.32A279.37,279.37,0,0,1,18.12,39a84.14,84.14,0,0,1,7.8,9.24c3.84-8.16,7.2-16.2,9.72-23l7.92,2.64a3.13,3.13,0,0,1-2.64,1.32c-5.64,13.08-14.64,32-22.44,45.12l17.88-.84A99.09,99.09,0,0,0,30.6,58.92l4.92-2.28c4.44,8.76,8.28,20,9.36,27.6L39.6,86.52c-.36-2.16-.84-4.68-1.44-7.32-10.08.84-19.8,1.68-26.28,2a1.78,1.78,0,0,1-1.56,1.56L7.44,75.12V92.64h38V0l9.84.72c-.12.84-.72,1.44-2.28,1.56V37.44l3.36-5c1.08.84,2.16,1.8,3.24,2.76A207.72,207.72,0,0,0,69.48,7l8.28,2.16c-.24.72-1.08,1.2-2.52,1.2a253.39,253.39,0,0,1-11.4,28.92,71.83,71.83,0,0,1,8.28,9.48C76.2,40.44,79.92,32,82.68,25l7.92,2.76A2.81,2.81,0,0,1,88,28.92C81.84,42.24,72.36,61.08,64.2,74.28l19.2-.84A90.34,90.34,0,0,0,76.56,58l5.16-2.4C87,64.32,91.2,76,92.4,83.64l-5.64,2.64A44.8,44.8,0,0,0,85.2,79.2c-10.56.84-21,1.68-27.72,2a1.78,1.78,0,0,1-1.56,1.56l-2.88-8Zm4.8-18.12c3.6-5.4,7.32-12.24,11-19.32C65.4,49.68,58.92,42.48,53,37.44V74.76Z"/><path d="M185,100.08H223.8v6.6H115.92v-6.6h38.4V76.92h-33v-6.6H219v6.6H185ZM125.76,24.24v18h-7.32V18.12h47V9.72H125.64V3.24H214.2V9.72H173.4v8.4h48V42.24h-7.68v-18H173.4v28h-7.92v-28ZM138.6,97.68a64.78,64.78,0,0,0-8.76-15.6l6.6-2a64.44,64.44,0,0,1,9.24,15.36Zm-7.68-48.84V43.56h27.6v5.28Zm77.52,7.56v6.12H131.76V56.4Zm-49.8-25.32v5.28H132.48V31.08ZM162,76.92v23.16h15.48V76.92Zm18.12-45.84h27v5.28h-27Zm28.8,12.48v5.28h-28.8V43.56Zm3.24,38.76a2.11,2.11,0,0,1-2.28,1,133.62,133.62,0,0,1-10.32,15l-6-2.28a117.7,117.7,0,0,0,10-16.68Z"/></g></g></svg>