<?xml version="1.0" encoding="utf-8"?>
<!-- Generator: Adobe Illustrator 20.1.0, SVG Export Plug-In . SVG Version: 6.00 Build 0)  -->
<!DOCTYPE svg PUBLIC "-//W3C//DTD SVG 1.1//EN" "http://www.w3.org/Graphics/SVG/1.1/DTD/svg11.dtd">
<svg version="1.1" id="Layer_1" xmlns="http://www.w3.org/2000/svg" xmlns:xlink="http://www.w3.org/1999/xlink" x="0px" y="0px"
	 viewBox="0 0 64 64" style="enable-background:new 0 0 64 64;" xml:space="preserve">
<style type="text/css">
	.st0{fill:#FF5252;}
</style>
<g>
	<path class="st0" d="M25.3,19.3l4.7,0.3c0,0.3-0.3,0.5-0.9,0.6v27.3h-3.8v-2H3.9v2.1H0.2V19.3l4.6,0.3c0,0.3-0.3,0.5-0.9,0.6v5.2
		l0.4-0.7c0.2,0.2,0.4,0.3,0.6,0.5c0.7-2.2,1.4-4.9,1.8-6.9l3.6,0.9c-0.1,0.3-0.4,0.4-0.8,0.4c-0.6,2.2-1.7,5.3-2.7,7.4
		c0.5,0.5,0.9,1,1.3,1.5c0.8-1.9,1.5-3.8,2-5.4l2.5,0.9v-7.5l4.6,0.3c0,0.3-0.3,0.5-0.9,0.6v7.9l0.3-0.4l0.6,0.5
		c0.8-2.2,1.5-4.9,1.9-6.9l3.7,0.9c-0.1,0.3-0.4,0.4-0.8,0.4c-0.6,2.3-1.8,5.4-2.8,7.6c0.5,0.5,0.9,1,1.3,1.5c0.9-2,1.7-4,2.3-5.8
		l2.6,1V19.3z M3.9,36.2h0.5c0.7-1.3,1.5-2.9,2.3-4.6C6,30.5,5,29.3,3.9,28.1V36.2z M3.9,38v3.7h8.7v-2.1l-1.9,0.8
		c0-0.5-0.1-1.1-0.2-1.8c-2.1,0.2-4,0.5-5.4,0.6c0,0.3-0.3,0.4-0.5,0.5L3.9,38z M9.9,35.9c-0.3-1.2-0.6-2.3-0.9-3.3
		c-0.6,1.2-1.2,2.4-1.8,3.5L9.9,35.9z M12.6,24.7L12.6,24.7c-0.9,2.3-2.2,5.1-3.5,7.7l2-0.9c0.6,1.7,1.2,3.6,1.5,5.3V24.7z
		 M16.3,36.2h0.3c0.8-1.3,1.6-2.8,2.4-4.5c-0.7-1-1.7-2.3-2.7-3.4V36.2z M16.3,41.7h9v-2.3l-2,0.9c-0.1-0.5-0.1-1-0.2-1.7
		c-2.2,0.2-4.2,0.5-5.7,0.6c-0.1,0.3-0.3,0.4-0.5,0.5l-0.6-1.6V41.7z M22.4,35.9c-0.3-1.2-0.7-2.3-1.1-3.4c-0.6,1.2-1.3,2.4-1.9,3.5
		L22.4,35.9z M25.3,24.5h-0.1c-0.9,2.2-2.2,4.9-3.6,7.5l2-0.9c0.7,1.6,1.3,3.6,1.7,5.4V24.5z"/>
	<path class="st0" d="M60.8,40.3c-0.1,0.2-0.4,0.4-0.8,0.3c-0.5,0.9-1.3,2.2-1.9,3.2h5.7v3.1H33.2v-3.1h5.1c-0.2-1-0.8-2.6-1.5-3.8
		l3.3-0.7c0.7,1.1,1.5,2.7,1.7,3.7l-3.2,0.8h4.8v-4.7h-8.8v-3h27.9v3h-9.1v4.7h3.9l-2.4-0.7c0.6-1.1,1.4-2.7,1.8-3.9L60.8,40.3z
		 M37.2,24.1v4.4h-3.6v-7.1h12.8v-1.5H35.9v-3h25.2v3H50.3v1.5h13.1v7.1h-3.8v-4.4h-9.3v7.1h-4v-7.1H37.2z M37.4,34.8v-2.7h22.2v2.7
		H37.4z M38.2,30.8v-2.2h6.9v2.2H38.2z M45.1,25.2v2.2h-6.8v-2.2H45.1z M47.1,39.1v4.7h2.5v-4.7H47.1z M51.6,25.2h6.9v2.2h-6.9V25.2
		z M51.6,30.8v-2.2h7.1v2.2H51.6z"/>
</g>
</svg>
